Coordinates
version=1
nRows=10
nColumns=63
inDegrees=yes

Units are S.I. units (second, meters, Newtons, ...)
If the header above contains a line with 'inDegrees', this indicates whether rotational values are in degrees (yes) or radians (no).

endheader
time	pelvis_tilt	pelvis_list	pelvis_rotation	pelvis_tx	pelvis_ty	pelvis_tz	hip_flexion_r	hip_adduction_r	hip_rotation_r	knee_angle_r	knee_angle_r_beta	ankle_angle_r	subtalar_angle_r	mtp_angle_r	hip_flexion_l	hip_adduction_l	hip_rotation_l	knee_angle_l	knee_angle_l_beta	ankle_angle_l	subtalar_angle_l	mtp_angle_l	L5_S1_Flex_Ext	L5_S1_Lat_Bending	L5_S1_axial_rotation	L4_L5_Flex_Ext	L4_L5_Lat_Bending	L4_L5_axial_rotation	L3_L4_Flex_Ext	L3_L4_Lat_Bending	L3_L4_axial_rotation	L2_L3_Flex_Ext	L2_L3_Lat_Bending	L2_L3_axial_rotation	L1_L2_Flex_Ext	L1_L2_Lat_Bending	L1_L2_axial_rotation	L1_T12_Flex_Ext	L1_T12_Lat_Bending	L1_T12_axial_rotation	Abs_r3	Abs_r2	Abs_r1	Abs_t1	Abs_t2	neck_flexion	neck_bending	neck_rotation	arm_flex_r	arm_add_r	arm_rot_r	elbow_flex_r	pro_sup_r	wrist_flex_r	wrist_dev_r	arm_flex_l	arm_add_l	arm_rot_l	elbow_flex_l	pro_sup_l	wrist_flex_l	wrist_dev_l
      0.00000000	      5.42463032	     -3.63023196	     92.60362713	      0.14380992	      0.90306776	      0.39128706	      3.73087561	     -1.19768873	    -23.49868601	     19.71882997	      0.34415851	     34.62556145	     18.76009974	      0.00000000	      8.47591723	     -5.19558868	     -8.98004230	     25.52116199	      0.44542831	     34.19891257	      7.74050013	      0.00000000	     -0.05104664	      0.33360860	      1.25215929	     -0.09479871	      0.44369944	      1.33041925	     -0.08386452	      0.81113596	      1.33041925	     -0.05834120	      0.81113596	      1.09563938	     -0.04740191	      0.68029466	      1.01737942	     -0.02916805	      0.51675973	      0.93911947	     -0.36462104	      3.77384724	      6.96413432	      0.00000000	      0.00000000	     10.44321161	      3.76718732	     -5.16193118	     12.94482792	    -11.20005329	     74.41558287	     49.85637201	     55.32326614	     -1.92252750	      1.41907759	     17.88944129	    -10.84432656	     77.57065602	     52.51471204	     63.37885322	     -1.87209800	      8.51350497
      0.01694915	      5.02615596	     -3.72142075	     92.69241600	      0.14460405	      0.90267585	      0.39105285	      3.82868227	     -1.57835457	    -23.87248509	     19.71098069	      0.34402151	     34.66228918	     18.83831371	      0.00000000	      8.39062161	     -4.86664491	     -9.78373184	     25.24036730	      0.44052751	     33.55348580	      8.26384762	      0.00000000	     -0.03738657	      0.25217909	      1.46231207	     -0.06943060	      0.33539818	      1.55370657	     -0.06142240	      0.61314823	      1.55370657	     -0.04272911	      0.61314823	      1.27952306	     -0.03471717	      0.51424359	      1.18812855	     -0.02136269	      0.39062540	      1.09673405	     -0.26704854	      2.85270026	      8.13294102	      0.00000000	      0.00000000	     11.69296077	      3.31715474	     -6.99516708	     11.63635737	    -11.23379396	     70.00316925	     50.11152115	     67.83567911	     -0.72580467	      2.36944622	     18.54153990	    -11.36921574	     79.17665748	     53.37454564	     59.71279173	     -2.17490538	     10.21384479
      0.03389831	      4.70491690	     -3.82451172	     92.86514912	      0.14501486	      0.90242086	      0.39102507	      3.93628522	     -1.90495418	    -24.33271794	     19.71260562	      0.34404987	     34.68344213	     18.89666619	      0.00000000	      8.40498047	     -4.51650123	    -10.02470879	     24.98678505	      0.43610167	     33.15446826	      8.47835619	      0.00000000	     -0.02049553	      0.19138063	      1.49961702	     -0.03806224	      0.25453624	      1.59334308	     -0.03367210	      0.46532287	      1.59334308	     -0.02342434	      0.46532287	      1.31216489	     -0.01903215	      0.39026338	      1.21843883	     -0.01171114	      0.29644860	      1.12471276	     -0.14639750	      2.16493597	      8.34041998	      0.00000000	      0.00000000	     12.46154083	      3.14451203	     -7.69759204	     11.63663117	    -11.14233841	     69.84960053	     50.15153060	     69.54046317	     -1.21893126	      2.48423573	     19.20232481	    -11.80667120	     80.61355576	     53.82022168	     59.48802277	     -1.44257794	     11.40417136
      0.05084746	      4.62176668	     -3.90894921	     92.60324364	      0.14533668	      0.90227155	      0.39075496	      4.05526341	     -1.96746335	    -24.15955066	     19.67491870	      0.34339211	     34.63783776	     18.89216911	      0.00000000	      8.31650229	     -4.47674955	    -10.77835851	     24.71740931	      0.43140018	     33.15602155	      9.07849947	      0.00000000	     -0.00050434	      0.17659728	      1.52044482	     -0.00093660	      0.23487438	      1.61547262	     -0.00082857	      0.42937862	      1.61547262	     -0.00057641	      0.42937862	      1.33038922	     -0.00046833	      0.36011717	      1.23536142	     -0.00028818	      0.27354918	      1.14033362	     -0.00360242	      1.99770372	      8.45625796	      0.00000000	      0.00000000	     12.81866622	      3.17432040	     -7.26572332	     11.36282131	    -10.96976021	     68.19063186	     50.08350421	     79.16387076	     -0.21640869	      2.86421171	     18.90017026	    -11.72657036	     79.12069576	     53.41337631	     66.30656090	      3.22874287	     13.39414169
      0.06779661	      4.56178461	     -3.93343567	     92.49320573	      0.14544948	      0.90223834	      0.39062337	      4.10115113	     -2.02298150	    -24.14795542	     19.66942628	      0.34329625	     34.64085930	     18.88831004	      0.00000000	      8.22122940	     -4.46355510	    -11.39425142	     24.48775201	      0.42739190	     33.33602331	      9.86807782	      0.00000000	      0.01131945	      0.16816613	      1.42539611	      0.02102136	      0.22366096	      1.51448336	      0.01859673	      0.40887914	      1.51448336	      0.01293700	      0.40887914	      1.24722159	      0.01051124	      0.34292438	      1.15813434	      0.00646794	      0.26048934	      1.06904708	      0.08085372	      1.90232893	      7.92762553	      0.00000000	      0.00000000	     12.85966142	      3.51408817	     -6.30323367	     11.99213375	    -10.73006602	     69.59572641	     49.66793398	     79.95669601	     -0.53671517	      2.44909257	     18.85834093	    -11.71166406	     78.32505877	     53.29178799	     75.22350067	      6.92122225	     14.30680164
      0.08474576	      4.53305658	     -3.92692614	     92.55264903	      0.14523666	      0.90223704	      0.39051091	      4.07617582	     -2.06495973	    -24.31980982	     19.65882387	      0.34311120	     34.66603126	     18.90905386	      0.00000000	      8.14239273	     -4.50676231	    -11.97914476	     24.31411633	      0.42436138	     33.66322810	     11.02155983	      0.00000000	      0.02157166	      0.17014825	      1.29489551	      0.04006072	      0.22629717	      1.37582648	      0.03544007	      0.41369845	      1.37582648	      0.02465425	      0.41369845	      1.13303357	      0.02003144	      0.34696630	      1.05210260	      0.01232604	      0.26355963	      0.97117163	      0.15408418	      1.92475099	      7.20182037	      0.00000000	      0.00000000	     12.63266494	      3.85620946	     -4.95375652	     12.45866510	    -10.44005056	     70.56608511	     49.16933905	     80.68872810	     -0.27445121	      2.17179488	     19.57414827	    -11.65815862	     79.93198576	     53.44955658	     79.54008102	      7.95086195	     15.38070074
      0.10169492	      4.57985318	     -3.89736361	     92.67229098	      0.14476661	      0.90224585	      0.39065618	      4.04124701	     -2.04483672	    -24.52318706	     19.65529232	      0.34304957	     34.66024488	     18.91698663	      0.00000000	      8.13088350	     -4.48657313	    -11.79312771	     24.25261313	      0.42328795	     33.80924687	     10.98239880	      0.00000000	      0.02343142	      0.18178540	      1.15786970	      0.04351449	      0.24177459	      1.23023656	      0.03849548	      0.44199303	      1.23023656	      0.02677977	      0.44199303	      1.01313599	      0.02175842	      0.37069679	      0.94076913	      0.01338871	      0.28158559	      0.86840228	      0.16736831	      2.05639283	      6.43972393	      0.00000000	      0.00000000	     12.42347155	      4.23441581	     -3.80022171	     13.32011076	    -10.27338197	     72.67108155	     48.68633170	     78.56198293	     -0.30547783	      1.68735108	     20.47852009	    -11.49048526	     81.92957824	     53.49843295	     83.90382764	      8.65365780	     15.50121822
      0.11864407	      4.61950261	     -3.88390001	     92.37819397	      0.14461890	      0.90233623	      0.39052360	      4.09238304	     -2.03268412	    -24.23101808	     19.75304961	      0.34475575	     34.63680706	     18.89991355	      0.00000000	      7.97195972	     -4.39976888	    -11.49952369	     24.04454917	      0.41965655	     33.64317448	     10.24568010	      0.00000000	      0.02556465	      0.19728630	      1.07952116	      0.04747612	      0.26239078	      1.14699123	      0.04200017	      0.47968192	      1.14699123	      0.02921784	      0.47968192	      0.94458102	      0.02373934	      0.40230623	      0.87711094	      0.01460764	      0.30559648	      0.80964087	      0.18260576	      2.23174213	      6.00397284	      0.00000000	      0.00000000	     12.16356516	      4.53830522	     -2.49783504	     13.95944294	    -10.11351846	     74.35527330	     48.33882416	     77.41379132	     -0.68263605	      1.33136564	     20.14236993	    -11.36193691	     81.16525654	     53.31778742	     86.86544495	     10.81887192	     16.20895967
      0.13559322	      4.70277014	     -3.86577150	     92.51411747	      0.14416249	      0.90236229	      0.39044782	      4.04490927	     -1.97195755	    -24.37500773	     19.76228998	      0.34491703	     34.57531779	     18.89621796	      0.00000000	      7.93182926	     -4.39564462	    -11.01321405	     24.02214728	      0.41926556	     33.36002157	      9.62696697	      0.00000000	      0.02466409	      0.21357046	      0.98965366	      0.04580369	      0.28404872	      1.05150702	      0.04052064	      0.51927523	      1.05150702	      0.02818859	      0.51927523	      0.86594696	      0.02290308	      0.43551289	      0.80409360	      0.01409306	      0.33082065	      0.74224025	      0.17617315	      2.41595180	      5.50415678	      0.00000000	      0.00000000	     12.05341814	      4.66303105	     -1.65173890	     14.35086791	    -10.02002341	     75.45479358	     48.08138304	     75.71670189	     -0.66245659	      1.19979844	     20.20691332	    -11.34523216	     81.49919736	     53.44603401	     87.47840938	     11.43241903	     17.36484002
      0.15254237	      4.67363672	     -3.87086841	     92.36040440	      0.14427366	      0.90242515	      0.39031431	      4.07801961	     -2.00856780	    -24.18556876	     19.83880178	      0.34625241	     34.53450930	     18.87780339	      0.00000000	      7.81296538	     -4.33210389	    -10.87818560	     23.93554531	      0.41775407	     32.88425469	      8.90411230	      0.00000000	      0.02339710	      0.20986462	      1.04757215	      0.04345076	      0.27911994	      1.11304540	      0.03843910	      0.51026483	      1.11304540	      0.02674055	      0.51026483	      0.91662563	      0.02172655	      0.42795592	      0.85115237	      0.01336910	      0.32508029	      0.78567911	      0.16712316	      2.37403051	      5.82628200	      0.00000000	      0.00000000	     12.10751941	      4.84783028	     -1.52215912	     14.20473578	    -10.00062656	     75.48905941	     47.95121973	     72.83716889	     -0.44469027	      1.25176242	     20.13357303	    -11.38028303	     81.27384765	     53.63329492	     87.66675409	     12.15480712	     18.55508759
